<svg xmlns="http://www.w3.org/2000/svg" fill="none" viewBox="0 0 40 40"><g clip-path="url(#a)"><path fill="#484848" d="M36 21.95c0 2.08-1.686 1.883-3.765 1.883H7.765C5.685 23.833 4 24.03 4 21.95l1.882-11.294C6 8.852 7.568 6.892 9.647 6.892h20.706c2.079 0 3.568 2.078 3.765 3.764L36 21.95Z"/><path fill="#BABABA" d="M29.412 15.362c0 1.039-.843 1.882-1.882 1.882H12.47a1.883 1.883 0 0 1-1.882-1.882v-7.53c0-1.04.844-1.882 1.883-1.882H27.53c1.039 0 1.882.843 1.882 1.883v7.529Z"/><path fill="#E8E8E8" d="M31.294 19.127a1.883 1.883 0 0 1-1.882 1.882H10.588a1.883 1.883 0 0 1-1.882-1.882v-7.53c0-1.039.843-1.882 1.882-1.882h18.824c1.039 0 1.882.843 1.882 1.882v7.53Z"/><path fill="#F9F9F9" d="M33.177 22.891a1.883 1.883 0 0 1-1.883 1.883H8.706a1.883 1.883 0 0 1-1.882-1.883v-7.53c0-1.038.843-1.882 1.882-1.882h22.588c1.04 0 1.883.844 1.883 1.883v7.53Z"/><path fill="#A3A3A3" d="M36 32.303a3.765 3.765 0 0 1-3.765 3.765H7.765A3.765 3.765 0 0 1 4 32.303V21.95a3.765 3.765 0 0 1 3.765-3.764h24.47A3.765 3.765 0 0 1 36 21.95v10.353Z"/><path fill="#FFB400" d="M23.765 4.068h-4.706a1.882 1.882 0 0 0-1.883 1.883v.94h3.765c1.039 0 1.882.844 1.882 1.883h.942c1.039 0 1.882-.843 1.882-1.882V5.95c0-1.04-.843-1.883-1.882-1.883Z"/><path fill="#229EFF" d="M20 7.833h-4.706c-1.04 0-1.882.843-1.882 1.882v.941h3.764c1.04 0 1.883.844 1.883 1.883h.94a1.883 1.883 0 0 0 1.883-1.883v-.94c0-1.04-.843-1.883-1.882-1.883Z"/><path fill="#FF3B30" d="M18.118 14.421a1.883 1.883 0 0 1-1.883 1.883H11.53a1.883 1.883 0 0 1-1.882-1.883v-.941c0-1.039.843-1.882 1.882-1.882h4.706c1.04 0 1.883.843 1.883 1.882v.941Z"/><path fill="#767676" d="M26.588 29.48c0 1.039-.843 1.882-1.882 1.882h-9.412a1.883 1.883 0 0 1-1.882-1.882v-4.706c0-1.04.843-1.882 1.882-1.882h9.412c1.039 0 1.882.843 1.882 1.882v4.706Z"/><path fill="#E8E8E8" d="M24.706 28.538a.94.94 0 0 1-.941.941h-7.53a.941.941 0 0 1-.941-.94v-2.824c0-.52.422-.942.941-.942h7.53c.52 0 .94.421.94.942v2.823Z"/></g><defs><clipPath id="a"><path fill="#fff" d="M0 0h32v32.941H0z" transform="translate(4 4.03)"/></clipPath></defs></svg>